<?xml version="1.0" encoding="iso-8859-1"?>
<!-- Generator: Adobe Illustrator 19.0.0, SVG Export Plug-In . SVG Version: 6.00 Build 0)  -->
<svg version="1.1" id="Layer_1" xmlns="http://www.w3.org/2000/svg" xmlns:xlink="http://www.w3.org/1999/xlink" x="0px" y="0px"
	 viewBox="0 0 491.52 491.52" style="fill:#7a51ed;" xml:space="preserve">
<g>
	<g>
		<polygon points="293.05,203.475 278.57,217.955 306.37,245.76 278.57,273.565 293.05,288.045 335.33,245.76 		"/>
	</g>
</g>
<g>
	<g>
		<polygon points="212.95,217.955 198.47,203.475 156.19,245.76 198.47,288.045 212.95,273.565 185.15,245.76 		"/>
	</g>
</g>
<g>
	<g>
		
			<rect x="186.231" y="241.215" transform="matrix(0.3415 -0.9399 0.9399 0.3415 -74.6362 396.3741)" width="118.63" height="20.47"/>
	</g>
</g>
<g>
	<g>
		<path d="M61.44,0v491.52h368.64V0H61.44z M409.6,471.04H81.92V409.6H409.6V471.04z M409.6,389.12H81.92V102.4H409.6V389.12z
			 M409.6,81.92H81.92V20.48H409.6V81.92z"/>
	</g>
</g>
<g>
	<g>
		<path d="M296.96,430.08h-102.4c-5.66,0-10.24,4.585-10.24,10.24c0,5.655,4.58,10.24,10.24,10.24h102.4
			c5.66,0,10.24-4.585,10.24-10.24C307.2,434.665,302.62,430.08,296.96,430.08z"/>
	</g>
</g>
<g>
	<g>
		<rect x="194.56" y="40.96" width="61.44" height="20.48"/>
	</g>
</g>
<g>
	<g>
		<rect x="276.48" y="40.96" width="20.48" height="20.48"/>
	</g>
</g>
<g>
	<g>
		<path d="M245.76,122.88c-67.76,0-122.88,55.125-122.88,122.88S178,368.64,245.76,368.64s122.88-55.125,122.88-122.88
			S313.52,122.88,245.76,122.88z M245.76,348.16c-56.46,0-102.4-45.935-102.4-102.4s45.94-102.4,102.4-102.4
			s102.4,45.935,102.4,102.4S302.22,348.16,245.76,348.16z"/>
	</g>
</g>
<g>
</g>
<g>
</g>
<g>
</g>
<g>
</g>
<g>
</g>
<g>
</g>
<g>
</g>
<g>
</g>
<g>
</g>
<g>
</g>
<g>
</g>
<g>
</g>
<g>
</g>
<g>
</g>
<g>
</g>
</svg>
