<svg xmlns="http://www.w3.org/2000/svg" width="70" height="70" viewBox="0 0 70 70">
  <defs>
    <style>
      .cls-1 {
        fill: #fafafa;
        fill-rule: evenodd;
      }
    </style>
  </defs>
  <path id="development" class="cls-1" d="M1041.67,1691.17a3.5,3.5,0,0,0-3.5-3.5H1037V1672.5a3.5,3.5,0,0,0-3.5-3.5h-49a3.5,3.5,0,0,0-3.5,3.5v15.17h-1.167a3.5,3.5,0,0,0-3.5,3.5V1732H974v3.5a3.5,3.5,0,0,0,3.5,3.5h63a3.5,3.5,0,0,0,3.5-3.5V1732h-2.33v-40.83Zm-58.337-18.67a1.166,1.166,0,0,1,1.167-1.17h49a1.171,1.171,0,0,1,1.17,1.17v5.83H983.333v-5.83Zm51.337,8.17v45.5a1.169,1.169,0,0,1-1.17,1.16h-49a1.164,1.164,0,0,1-1.167-1.16v-45.5h51.337Zm-56,10.5a1.166,1.166,0,0,1,1.166-1.17H981v36.17a3.5,3.5,0,0,0,3.5,3.5h49a3.5,3.5,0,0,0,3.5-3.5V1690h1.17a1.163,1.163,0,0,1,1.16,1.17V1732H978.667v-40.83Zm63,44.33a1.178,1.178,0,0,1-1.17,1.17h-63a1.173,1.173,0,0,1-1.167-1.17v-1.17h65.337v1.17ZM987.662,1674a1.387,1.387,0,0,0-.385-0.24,1.138,1.138,0,0,0-.887,0,1.358,1.358,0,0,0-.385.24,1.173,1.173,0,0,0,1.657,1.66,1.215,1.215,0,0,0,.245-0.38,1.111,1.111,0,0,0,0-.89A1.388,1.388,0,0,0,987.662,1674Zm4.666,0a1.224,1.224,0,0,0-1.656,0,1.142,1.142,0,0,0-.245.39,1.158,1.158,0,0,0-.094.44,1.207,1.207,0,0,0,.339.83,1.184,1.184,0,0,0,1.656,0,1.207,1.207,0,0,0,.339-0.83,1.158,1.158,0,0,0-.094-0.44A1.142,1.142,0,0,0,992.328,1674Zm4.667,0a1.173,1.173,0,1,0-.835,2.01,1.191,1.191,0,0,0,.835-0.35,1.29,1.29,0,0,0,.245-0.38,1.111,1.111,0,0,0,0-.89A1.485,1.485,0,0,0,997,1674Zm-6.157,39.23-3,3,6.6,6.6,3-3a16.074,16.074,0,0,0,2.229.92V1725H1009v-4.25a16.086,16.086,0,0,0,2.23-.92l3,3,6.6-6.6-3-3a16.086,16.086,0,0,0,.92-2.23H1023v-5.29l0.47,0.81,6.06-3.5-1.51-2.61a9.841,9.841,0,0,0,1.3-2.24h3.01v-7h-3.01a9.43,9.43,0,0,0-1.3-2.24l1.52-2.62-6.07-3.5-1.51,2.62a8.583,8.583,0,0,0-2.58,0l-1.51-2.62-6.07,3.5,1.52,2.62a9.1,9.1,0,0,0-1.3,2.24H1009v-3.5h-9.333v4.25a13.946,13.946,0,0,0-2.229.92l-3-3.01-6.6,6.6,3,3.01a14.626,14.626,0,0,0-.921,2.23h-4.25V1711h4.25A15.057,15.057,0,0,0,990.838,1713.23Zm22.872-19.73,0.25-.83a7.144,7.144,0,0,1,1.62-2.81l0.6-.63-1.19-2.06,2.02-1.17,1.19,2.07,0.85-.21a6.827,6.827,0,0,1,3.24,0l0.84,0.21,1.19-2.07,2.02,1.17-1.19,2.06,0.6,0.63a7.025,7.025,0,0,1,1.62,2.81l0.25,0.83H1030v2.33h-2.38l-0.25.84a7.056,7.056,0,0,1-1.62,2.8l-0.6.63,1.19,2.06-2.02,1.17-1.19-2.06-0.84.2a6.827,6.827,0,0,1-3.24,0l-0.85-.2-1.19,2.06-2.02-1.17,1.19-2.06-0.6-.63a7.176,7.176,0,0,1-1.62-2.8l-0.25-.84h-2.38v-2.33h2.38ZM988,1704h3.7l0.226-.88a13.038,13.038,0,0,1,1.365-3.3l0.46-.77-2.613-2.62,3.3-3.3,2.612,2.62,0.78-.46a12.785,12.785,0,0,1,3.294-1.37l0.88-.22V1690h4.67v3.7l0.87,0.22a12.461,12.461,0,0,1,1.46.48v3.77h3.02a9.192,9.192,0,0,0,1.29,2.23l-0.81,1.42a9.558,9.558,0,1,0,.84,2.09l4.53,2.61,1.51-2.61a9.112,9.112,0,0,0,1.29.09h0v4.67h-3.7l-0.23.87a12.36,12.36,0,0,1-1.36,3.3l-0.46.78,2.61,2.61-3.3,3.3-2.61-2.61-0.78.46a12.36,12.36,0,0,1-3.3,1.36l-0.87.23v3.7H1002v-3.7l-0.88-.23a12.416,12.416,0,0,1-3.294-1.36l-0.78-.46-2.612,2.61-3.3-3.3,2.613-2.61-0.46-.78a12.744,12.744,0,0,1-1.365-3.3l-0.226-.87H988V1704Zm23.33,2.33a7,7,0,1,1-7-7A6.995,6.995,0,0,1,1011.33,1706.33Zm9.34-7a4.665,4.665,0,1,0-4.67-4.66A4.665,4.665,0,0,0,1020.67,1699.33Zm0-7a2.335,2.335,0,1,1-2.34,2.34A2.334,2.334,0,0,1,1020.67,1692.33Z" transform="translate(-974 -1669)"/>
</svg>
