<svg xmlns="http://www.w3.org/2000/svg" width="30" height="41.03" viewBox="0 0 30 41.03">
  <defs>
    <style>
      .cls-1 {
        fill: #7a51ed;
        fill-rule: evenodd;
      }
    </style>
  </defs>
  <path id="location" class="cls-1" d="M420,1008a14.941,14.941,0,0,0-15,14.85c0,10.16,13.423,25.08,14,25.71a1.363,1.363,0,0,0,2.01,0c0.571-.63,14-15.55,14-25.71A14.941,14.941,0,0,0,420,1008Zm0,37.61c-4.518-5.31-12.3-15.79-12.3-22.76a12.3,12.3,0,0,1,24.6,0C432.3,1029.82,424.519,1040.3,420,1045.61Zm0-30.23a7.47,7.47,0,1,0,7.547,7.47A7.517,7.517,0,0,0,420,1015.38Zm0,12.26a4.8,4.8,0,1,1,4.846-4.79A4.825,4.825,0,0,1,420,1027.64Z" transform="translate(-405 -1008)"/>
</svg>
