<svg xmlns="http://www.w3.org/2000/svg" width="65" height="79" viewBox="0 0 65 79">
  <defs>
    <style>
      .cls-1 {
        fill: #fff;
        fill-rule: evenodd;
      }
    </style>
  </defs>
  <path id="mobile_app" data-name="mobile app" class="cls-1" d="M1417.15,2337h28.35a8.192,8.192,0,0,0,8.15-8.22v-9.65h1.95a1.065,1.065,0,0,0,1.06-.97l0.35-3.71a16.849,16.849,0,0,0,4.37-1.85l2.82,2.35a1.05,1.05,0,0,0,1.43-.07l4.22-4.25a1.074,1.074,0,0,0,.07-1.44l-2.35-2.85a18.1,18.1,0,0,0,1.85-4.4l3.62-.36a1.074,1.074,0,0,0,.96-1.07v-6.02a1.067,1.067,0,0,0-.96-1.07l-3.67-.36a17.594,17.594,0,0,0-1.84-4.41l2.33-2.84a1.084,1.084,0,0,0-.06-1.44l-4.16-4.25a1.053,1.053,0,0,0-1.44-.07l-2.82,2.36a17.174,17.174,0,0,0-4.37-1.86l-0.35-3.71a1.065,1.065,0,0,0-1.06-.97h-1.95v-9.65a8.186,8.186,0,0,0-8.15-8.22h-28.35a8.192,8.192,0,0,0-8.15,8.22v62.56A8.2,8.2,0,0,0,1417.15,2337Zm37.82-55.49a1.064,1.064,0,0,0,.83.95,15.219,15.219,0,0,1,5.09,2.17,1.068,1.068,0,0,0,1.26-.08l2.66-2.23,2.8,2.87-2.21,2.69a1.083,1.083,0,0,0-.07,1.28,15.189,15.189,0,0,1,2.14,5.12,1.061,1.061,0,0,0,.94.84l3.46,0.34v4.08l-3.41.34a1.061,1.061,0,0,0-.94.84,15.746,15.746,0,0,1-2.14,5.13,1.068,1.068,0,0,0,.07,1.27l2.21,2.69-2.85,2.87-2.66-2.23a1.068,1.068,0,0,0-1.27-.07,15.032,15.032,0,0,1-5.08,2.16,1.063,1.063,0,0,0-.83.94l-0.33,3.5h-4.05l-0.33-3.5a1.075,1.075,0,0,0-.83-0.94,15.219,15.219,0,0,1-5.09-2.17,1.068,1.068,0,0,0-1.26.08l-2.67,2.23-2.84-2.87,2.21-2.7a1.066,1.066,0,0,0,.06-1.27,15.394,15.394,0,0,1-2.14-5.12,1.04,1.04,0,0,0-.93-0.84l-3.47-.34v-4.08l3.47-.34a1.04,1.04,0,0,0,.93-0.84,15.678,15.678,0,0,1,2.15-5.13,1.1,1.1,0,0,0-.07-1.27l-2.21-2.69,2.84-2.87,2.67,2.23a1.067,1.067,0,0,0,1.27.07,14.786,14.786,0,0,1,5.07-2.16,1.074,1.074,0,0,0,.84-0.95l0.33-3.49h4.05Zm-37.82-21.37h28.35a6.058,6.058,0,0,1,6.02,6.08v2.5h-2.48a1.075,1.075,0,0,0,0,2.15h2.48v5h-1.89a1.065,1.065,0,0,0-1.06.97l-0.36,3.71a17.145,17.145,0,0,0-4.37,1.85l-2.82-2.35a1.05,1.05,0,0,0-1.43.06l-4.21,4.26a1.074,1.074,0,0,0-.07,1.44l2.34,2.85a17.682,17.682,0,0,0-1.84,4.4l-3.67.36a1.068,1.068,0,0,0-.97,1.07v6.02a1.075,1.075,0,0,0,.97,1.07l3.67,0.36a17.594,17.594,0,0,0,1.84,4.41l-2.34,2.84a1.074,1.074,0,0,0,.07,1.44l4.21,4.25a1.041,1.041,0,0,0,1.43.07l2.83-2.36a17.227,17.227,0,0,0,4.37,1.86l0.35,3.71a1.065,1.065,0,0,0,1.06.97h1.89v2.86h-40.39v-51.12h28.88a1.075,1.075,0,0,0,0-2.15h-28.88v-2.5A6.058,6.058,0,0,1,1417.15,2260.14Zm-6.02,63.99h40.39v4.65a6.043,6.043,0,0,1-6.02,6.07h-28.35a6.043,6.043,0,0,1-6.02-6.07v-4.65Zm32.37-53.26h1.97a1.075,1.075,0,0,0,0-2.15h-1.97A1.075,1.075,0,0,0,1443.5,2270.87Zm-12.17,62.38a3.755,3.755,0,1,0-3.73-3.76A3.741,3.741,0,0,0,1431.33,2333.25Zm0-5.37a1.61,1.61,0,1,1-1.6,1.61A1.6,1.6,0,0,1,1431.33,2327.88Zm8.59-30.38a12.7,12.7,0,1,0,12.69-12.81h0A12.772,12.772,0,0,0,1439.92,2297.5Zm12.69-10.66a10.66,10.66,0,1,1-10.56,10.66A10.612,10.612,0,0,1,1452.61,2286.84Zm-2.14,14.48a1.044,1.044,0,0,0,1.48,0l6.2-6.11a1.081,1.081,0,0,0,.03-1.51,1.062,1.062,0,0,0-1.51-.03,0.01,0.01,0,0,1-.01.01l-5.45,5.37-2.7-2.65a1.05,1.05,0,0,0-1.5.02,1.081,1.081,0,0,0,.01,1.51Zm-22.61-7.22h-1.47a1.075,1.075,0,0,0,0,2.15h1.47A1.075,1.075,0,0,0,1427.86,2294.1Zm-12.58,2.15h6.41a1.075,1.075,0,0,0,0-2.15h-6.41A1.075,1.075,0,0,0,1415.28,2296.25Zm12.58,6.79h-6.79a1.07,1.07,0,0,0,0,2.14h6.79A1.07,1.07,0,0,0,1427.86,2303.04Zm-12.58,2.14h1.09a1.07,1.07,0,0,0,0-2.14h-1.09A1.07,1.07,0,0,0,1415.28,2305.18Zm11.87,7.87a1.063,1.063,0,0,0,1.06,1.07h4.96a1.07,1.07,0,0,0,0-2.14h-4.96A1.063,1.063,0,0,0,1427.15,2313.05Zm-3.69-1.07h-8.18a1.07,1.07,0,0,0,0,2.14h8.18A1.07,1.07,0,0,0,1423.46,2311.98Zm-0.56-25.38h6.73a1.075,1.075,0,0,0,0-2.15h-6.73A1.075,1.075,0,0,0,1422.9,2286.6Zm-7.62,0h2.86a1.075,1.075,0,0,0,0-2.15h-2.86A1.075,1.075,0,0,0,1415.28,2286.6Z" transform="translate(-1409 -2258)"/>
</svg>
