<svg xmlns="http://www.w3.org/2000/svg" width="36" height="36.96" viewBox="0 0 36 36.96">
  <defs>
    <style>
      .cls-1 {
        fill: #7a51ed;
        fill-rule: evenodd;
      }
    </style>
  </defs>
  <path id="phone" class="cls-1" d="M717.863,1033.77a3.507,3.507,0,0,0-2.574-1.21,3.619,3.619,0,0,0-2.6,1.2l-2.407,2.46c-0.2-.11-0.4-0.21-0.586-0.31-0.274-.15-0.533-0.28-0.754-0.42a26.524,26.524,0,0,1-6.267-5.85,16.142,16.142,0,0,1-2.056-3.33c0.624-.59,1.2-1.2,1.766-1.78,0.214-.22.427-0.45,0.64-0.67a3.639,3.639,0,0,0,0-5.4l-2.079-2.13c-0.236-.24-0.479-0.49-0.708-0.74-0.457-.49-0.937-0.99-1.432-1.46a3.591,3.591,0,0,0-2.551-1.14,3.717,3.717,0,0,0-2.589,1.14l-0.015.02-2.589,2.68a5.782,5.782,0,0,0-1.653,3.63,14,14,0,0,0,.975,5.79,33.764,33.764,0,0,0,5.826,9.97,35.987,35.987,0,0,0,11.933,9.58,18.237,18.237,0,0,0,6.7,2.03c0.16,0.01.327,0.01,0.479,0.01a5.66,5.66,0,0,0,4.394-1.93,0.139,0.139,0,0,1,.031-0.04,16.941,16.941,0,0,1,1.332-1.41c0.328-.32.663-0.66,0.99-1.01a3.951,3.951,0,0,0,1.15-2.7,3.8,3.8,0,0,0-1.172-2.68Zm2.726,8.22c-0.008,0-.008.01,0,0-0.3.33-.6,0.62-0.929,0.95a21.4,21.4,0,0,0-1.47,1.56,3.605,3.605,0,0,1-2.863,1.24h-0.35a16.306,16.306,0,0,1-5.94-1.83,33.977,33.977,0,0,1-11.24-9.03,31.843,31.843,0,0,1-5.483-9.36,11.386,11.386,0,0,1-.852-4.89,3.637,3.637,0,0,1,1.05-2.32l2.6-2.66a1.7,1.7,0,0,1,1.158-.55,1.607,1.607,0,0,1,1.111.54l0.023,0.03c0.465,0.44.906,0.9,1.371,1.39,0.236,0.25.48,0.5,0.723,0.76l2.079,2.13a1.512,1.512,0,0,1,0,2.42c-0.221.23-.434,0.46-0.655,0.67-0.639.68-1.248,1.3-1.911,1.91a0.2,0.2,0,0,0-.038.04,1.619,1.619,0,0,0-.4,1.77c0.008,0.02.015,0.05,0.023,0.07a17.361,17.361,0,0,0,2.459,4.12h0.008a28.023,28.023,0,0,0,6.762,6.31,9.762,9.762,0,0,0,.937.53c0.274,0.14.533,0.27,0.754,0.41l0.091,0.06a1.645,1.645,0,0,0,.754.19,1.589,1.589,0,0,0,1.158-.54l2.6-2.67a1.726,1.726,0,0,1,1.15-.58,1.522,1.522,0,0,1,1.1.57c0.008,0,.008,0,0.016.01l4.2,4.3A1.574,1.574,0,0,1,720.589,1041.99Zm-11.742-22.34a9.57,9.57,0,0,1,5.254,2.79,10.084,10.084,0,0,1,2.726,5.39,1.03,1.03,0,0,0,1.013.88,1.068,1.068,0,0,0,1.021-1.24,12.18,12.18,0,0,0-3.3-6.52,11.625,11.625,0,0,0-6.358-3.38A1.056,1.056,0,0,0,708.847,1019.65Zm16.54,7.52a19.977,19.977,0,0,0-5.43-10.74,19.212,19.212,0,0,0-10.471-5.57,1.029,1.029,0,0,0-1.18.86,1.057,1.057,0,0,0,.845,1.22,17.184,17.184,0,0,1,9.359,4.97,17.856,17.856,0,0,1,4.851,9.6,1.03,1.03,0,0,0,1.013.88,1.043,1.043,0,0,0,.175-0.02A1.032,1.032,0,0,0,725.387,1027.17Z" transform="translate(-689.375 -1010.88)"/>
</svg>
