<svg xmlns="http://www.w3.org/2000/svg" width="70" height="70" viewBox="0 0 70 70">
  <defs>
    <style>
      .cls-1 {
        fill: #fff;
        fill-rule: evenodd;
      }
    </style>
  </defs>
  <path id="project_study" data-name="project study" class="cls-1" d="M406.838,1672.84a1.2,1.2,0,0,0-.245.38,1.193,1.193,0,0,0,.245,1.27,1.169,1.169,0,1,0,1.657-1.65A1.225,1.225,0,0,0,406.838,1672.84Zm3.885-.25a1.163,1.163,0,0,0-.385.25,1.17,1.17,0,0,0,1.65,1.66,1.161,1.161,0,0,0,.345-0.83,1.225,1.225,0,0,0-.339-0.83A1.194,1.194,0,0,0,410.723,1672.59Zm3.5,0a1.194,1.194,0,0,0-.385.25,1.173,1.173,0,0,0,0,1.65,1.228,1.228,0,0,0,.385.25,1.121,1.121,0,0,0,.443.09,1.149,1.149,0,0,0,1.167-1.14v-0.02A1.16,1.16,0,0,0,414.223,1672.59Zm3.943,16.24H434.5v2.34H418.166v-2.34Zm0,7H434.5v2.34H418.166v-2.34Zm0,7h22.165v2.34H418.166v-2.34Zm0,7h15.165v2.34H418.166v-2.34Zm0,7H427.5v2.34h-9.333v-2.34Zm0,7h7v2.34h-7v-2.34ZM468.529,1683a4.452,4.452,0,0,0-3.158,1.31l-4.041,4.04V1672.5a3.5,3.5,0,0,0-3.5-3.5H406.5a3.5,3.5,0,0,0-3.5,3.5v63a3.5,3.5,0,0,0,3.5,3.5h51.33a3.5,3.5,0,0,0,3.5-3.5v-34.52l10.357-10.36A4.463,4.463,0,0,0,468.529,1683Zm-63.2-10.5a1.166,1.166,0,0,1,1.167-1.17h51.33A1.166,1.166,0,0,1,459,1672.5v3.5H405.333v-3.5Zm53.664,63a1.173,1.173,0,0,1-1.167,1.17H406.5a1.172,1.172,0,0,1-1.167-1.17v-57.17H459v12.35l-7,7v-3.5l-12.35-12.35H412.333v51.34H452v-22.85l7-7v32.18Zm-27.852-16.96-3.158,9.47,9.474-3.16,3.353-3.35,8.85-8.85v18.18h-35v-46.66H438v11.66h11.666v4.19L434.5,1715.18Zm3.353-.06,3.017,3.02-1.314,1.31-4.525,1.51,1.509-4.52Zm5.833-32.66,7.683,7.68h-7.683v-7.68Zm-1.166,34.03-3.017-3.02,27.515-27.51,3.017,3.01Zm30.872-30.88-1.708,1.71-3.016-3.01,1.707-1.71a2.133,2.133,0,1,1,3.082,2.95Z" transform="translate(-403 -1669)"/>
</svg>
