<svg xmlns="http://www.w3.org/2000/svg" width="70" height="70" viewBox="0 0 70 70">
  <defs>
    <style>
      .cls-1 {
        fill: #fff;
        fill-rule: evenodd;
      }
    </style>
  </defs>
  <path id="research" class="cls-1" d="M699.333,1682.52l-1.508-1.51-1.65,1.65,3.158,3.16,5.492-5.5-1.65-1.65Zm9.334-4.19h17.5v2.34h-17.5v-2.34Zm0,4.67h17.5v2.33h-17.5V1683Zm0,23.33h21v2.34h-21v-2.34Zm0,4.67h21v2.33h-21V1711Zm-5.492-5.49-2.675,2.67-2.675-2.67-1.65,1.65,2.675,2.67-2.675,2.68,1.65,1.65,2.675-2.68,2.675,2.68,1.65-1.65-2.675-2.68,2.675-2.67Zm5.492,14.82H728.5v2.34H708.667v-2.34Zm0,4.67H728.5v2.33H708.667V1725Zm-5.492-5.49-2.675,2.67-2.675-2.67-1.65,1.65,2.675,2.67-2.675,2.68,1.65,1.65,2.675-2.68,2.675,2.68,1.65-1.65-2.675-2.68,2.675-2.67Zm-3.842-22.99-1.508-1.51-1.65,1.65,3.158,3.16,5.492-5.5-1.65-1.65Zm9.334-4.19h25.666v2.34H708.667v-2.34Zm0,4.67h25.666v2.33H708.667V1697Zm40.833,11.67h-5.833v-1.52a8.165,8.165,0,1,0,4.73-15.63,7.8,7.8,0,0,0-2.4-.35h-2.333v-9.82L731.316,1669H690v67.67h42V1739h28v-19.83A10.505,10.505,0,0,0,749.5,1708.67Zm-3.5,5.55-1.612-3.22h3.224Zm2.257,15.04L746,1731.52l-2.258-2.26L746,1714.59ZM746,1705.17a5.849,5.849,0,0,1-5.833-5.84v-1.16h3.5a10.568,10.568,0,0,1,7.719,3.39A5.854,5.854,0,0,1,746,1705.17Zm5.773-6.44a12.882,12.882,0,0,0-8.106-2.9h-3.5v-2.33H746a5.824,5.824,0,0,1,5.773,5.23h0ZM732,1672.98l7.684,7.69H732v-7.69Zm-39.667,61.35v-63h37.334V1683h11.666v8.17h-3.5v8.16a8.148,8.148,0,0,0,3.5,6.69v2.71A10.516,10.516,0,0,0,732,1719.17v15.16H692.333Zm65.334,2.34H734.333v-17.5a8.166,8.166,0,0,1,7.467-8.13l1.827,3.65-2.37,15.38,4.743,4.75,4.742-4.75-2.366-15.38,1.824-3.65a8.166,8.166,0,0,1,7.467,8.13v17.5Z" transform="translate(-690 -1669)"/>
</svg>
