<svg xmlns="http://www.w3.org/2000/svg" width="81" height="79" viewBox="0 0 81 79">
  <defs>
    <style>
      .cls-1 {
        fill: #fff;
        fill-rule: evenodd;
      }
    </style>
  </defs>
  <path id="seo" class="cls-1" d="M1065.67,2278.03a3.95,3.95,0,1,0-3.16-1.58l-6.5,9.09a3.821,3.821,0,0,0-1.23-.2,3.975,3.975,0,0,0-2.69,1.06l-4.33-2.45a3.861,3.861,0,0,0,.09-0.84,3.955,3.955,0,1,0-7.91,0,3.861,3.861,0,0,0,.09.84l-4.33,2.45a3.962,3.962,0,1,0,1.26,2.9,3.837,3.837,0,0,0-.09-0.83l4.33-2.46a3.943,3.943,0,0,0,5.38,0l4.34,2.46a3.837,3.837,0,0,0-.09.83,3.955,3.955,0,1,0,7.11-2.38l6.5-9.09A3.867,3.867,0,0,0,1065.67,2278.03Zm0-5.54a1.585,1.585,0,1,1-1.58,1.58A1.577,1.577,0,0,1,1065.67,2272.49Zm-32.67,18.4a1.585,1.585,0,1,1,1.58-1.59A1.592,1.592,0,0,1,1033,2290.89Zm10.89-6.19a1.585,1.585,0,1,1,1.58-1.59A1.586,1.586,0,0,1,1043.89,2284.7Zm10.89,6.19a1.585,1.585,0,1,1,1.58-1.59A1.592,1.592,0,0,1,1054.78,2290.89Zm25.47,25.76h-62.89a0.984,0.984,0,0,1-.99-0.98v-49a0.984,0.984,0,0,1,.99-0.98h11.92a1.19,1.19,0,0,0,0-2.38h-11.92a3.367,3.367,0,0,0-3.36,3.36v49a3.367,3.367,0,0,0,3.36,3.36h8.18v2.61a2.7,2.7,0,0,0,2.7,2.7h11.87l-5.59,10.93a1.186,1.186,0,0,0,.52,1.6,1.133,1.133,0,0,0,.54.13,1.181,1.181,0,0,0,1.05-.65l6.15-12.01h13.12l6.14,12.01a1.2,1.2,0,0,0,1.06.65,1.161,1.161,0,0,0,.54-0.13,1.191,1.191,0,0,0,.51-1.6l-5.59-10.93h11.88a2.7,2.7,0,0,0,2.7-2.7v-2.61h7.11A1.19,1.19,0,0,0,1080.25,2316.65Zm-9.49,4.99a0.324,0.324,0,0,1-.32.33h-42.2a0.333,0.333,0,0,1-.33-0.33v-2.61h42.85v2.61Zm-43.06-55.95h53.62a0.982,0.982,0,0,1,.98.98v11.29a1.19,1.19,0,0,0,2.38,0v-11.29a3.367,3.367,0,0,0-3.36-3.36h-25.4v-2.33a2.979,2.979,0,0,0-2.97-2.98h-7.22a2.987,2.987,0,0,0-2.98,2.98v2.33H1027.7A1.19,1.19,0,0,0,1027.7,2265.69Zm17.43-4.71a0.61,0.61,0,0,1,.6-0.61h7.22a0.61,0.61,0,0,1,.6.61v2.33h-8.42v-2.33h0Zm-14.53,38.35a1.186,1.186,0,0,0-1.19,1.19v10.49a1.186,1.186,0,0,0,1.19,1.19h4.81a1.193,1.193,0,0,0,1.19-1.19v-10.49a1.193,1.193,0,0,0-1.19-1.19h-4.81Zm3.62,10.5h-2.44v-8.12h2.44v8.12Zm7.27-16.57a1.186,1.186,0,0,0-1.19,1.19v16.56a1.186,1.186,0,0,0,1.19,1.19h4.81a1.193,1.193,0,0,0,1.19-1.19v-16.56a1.193,1.193,0,0,0-1.19-1.19h-4.81Zm3.62,16.57h-2.44v-14.19h2.44v14.19Zm7.27-10.5a1.186,1.186,0,0,0-1.19,1.19v10.49a1.186,1.186,0,0,0,1.19,1.19h4.81a1.193,1.193,0,0,0,1.19-1.19v-10.49a1.193,1.193,0,0,0-1.19-1.19h-4.81Zm3.62,10.5h-2.44v-8.12H1056v8.12Zm7.27-3.49a1.186,1.186,0,0,0-1.19,1.19v3.48a1.186,1.186,0,0,0,1.19,1.19h4.81a1.185,1.185,0,1,0,0-2.37h-3.63v-2.3A1.184,1.184,0,0,0,1063.27,2306.34Zm31.12,11.43-6.8-11.8a15.424,15.424,0,1,0-11.31,4.92,15.288,15.288,0,0,0,3.5-.41l6.8,11.81a4.537,4.537,0,0,0,3.92,2.25,4.432,4.432,0,0,0,2.24-.6A4.506,4.506,0,0,0,1094.39,2317.77Zm-21.53-9.71a13.147,13.147,0,1,1,9.97-1.32A13.087,13.087,0,0,1,1072.86,2308.06Zm18.7,13.82a2.14,2.14,0,0,1-2.92-.78l-6.55-11.36a14.2,14.2,0,0,0,1.92-.94,14.585,14.585,0,0,0,1.78-1.2l6.55,11.36a2.1,2.1,0,0,1,.29,1.07A2.142,2.142,0,0,1,1091.56,2321.88Zm-4.54-23.18a11.284,11.284,0,0,0-.56-8.14,1.188,1.188,0,0,0-2.15,1.01,8.891,8.891,0,1,1-2.68-3.31,1.185,1.185,0,1,0,1.43-1.89,11.273,11.273,0,1,0-9.72,19.88,11.366,11.366,0,0,0,2.94.39,11.1,11.1,0,0,0,5.61-1.52A11.267,11.267,0,0,0,1087.02,2298.7Z" transform="translate(-1014 -2258)"/>
</svg>
