<svg xmlns="http://www.w3.org/2000/svg" width="40" height="40" viewBox="0 0 40 40">
  <defs>
    <style>
      .cls-1 {
        fill: #7a51ed;
        fill-rule: evenodd;
      }
    </style>
  </defs>
  <path id="social" class="cls-1" d="M1279,1017.39a4.2,4.2,0,1,0-4.2-4.19A4.2,4.2,0,0,0,1279,1017.39Zm-2.39-4.19a2.39,2.39,0,1,1,2.39,2.38A2.39,2.39,0,0,1,1276.61,1013.2Zm5.02,4.36h-0.21l-0.19.09a5,5,0,0,1-4.46,0l-0.19-.09h-0.21a3.547,3.547,0,0,0-3.54,3.54v3.95a2.221,2.221,0,0,0,2.22,2.22h7.9a2.221,2.221,0,0,0,2.22-2.22v-3.95A3.547,3.547,0,0,0,1281.63,1017.56Zm1.73,3.54v3.95a0.406,0.406,0,0,1-.41.41h-7.9a0.406,0.406,0,0,1-.41-0.41v-3.95a1.732,1.732,0,0,1,1.54-1.72,6.849,6.849,0,0,0,5.64,0A1.732,1.732,0,0,1,1283.36,1021.1Zm9.47,9.63h0a4.2,4.2,0,1,0,4.19,4.2A4.2,4.2,0,0,0,1292.83,1030.73Zm2.38,4.2a2.385,2.385,0,1,1-2.38-2.39A2.386,2.386,0,0,1,1295.21,1034.93Zm0.25,4.36h-0.21l-0.19.09a5.085,5.085,0,0,1-4.47,0l-0.19-.09h-0.21a3.553,3.553,0,0,0-3.54,3.54v3.95a2.23,2.23,0,0,0,2.23,2.22h7.9a2.228,2.228,0,0,0,2.22-2.22v-3.95A3.547,3.547,0,0,0,1295.46,1039.29Zm1.73,3.54v3.95a0.419,0.419,0,0,1-.41.41h-7.9a0.412,0.412,0,0,1-.41-0.41v-3.95a1.732,1.732,0,0,1,1.54-1.72,6.826,6.826,0,0,0,5.63,0A1.733,1.733,0,0,1,1297.19,1042.83Zm-32.02-3.71a4.2,4.2,0,1,0,0-8.39h0A4.2,4.2,0,0,0,1265.17,1039.12Zm-2.38-4.19a2.385,2.385,0,1,1,2.38,2.38A2.388,2.388,0,0,1,1262.79,1034.93Zm5.02,4.36h-0.21l-0.2.09a5.063,5.063,0,0,1-4.46,0l-0.19-.09h-0.21a3.547,3.547,0,0,0-3.54,3.54v3.95a2.228,2.228,0,0,0,2.22,2.22h7.9a2.23,2.23,0,0,0,2.23-2.22v-3.95A3.553,3.553,0,0,0,1267.81,1039.29Zm1.72,3.54v3.95a0.412,0.412,0,0,1-.41.41h-7.9a0.419,0.419,0,0,1-.41-0.41v-3.95a1.733,1.733,0,0,1,1.55-1.72,6.826,6.826,0,0,0,5.63,0A1.732,1.732,0,0,1,1269.53,1042.83Zm16.23-.24a0.891,0.891,0,0,0-.5-0.49,0.871,0.871,0,0,0-.69.01,14.52,14.52,0,0,1-8.39.83,0.925,0.925,0,0,0,.4-1.03,0.942,0.942,0,0,0-.44-0.54,0.914,0.914,0,0,0-.69-0.07l-2.62.77a0.261,0.261,0,0,0-.08.03,1.178,1.178,0,0,0-.19.11c-0.03.02-.05,0.03-0.08,0.05l-0.02.01a1.016,1.016,0,0,0-.22.32,0.937,0.937,0,0,0-.07.37V1043c0.02,0.09.04,0.18,0.07,0.28l0.03,0.09,1.32,2.51a0.9,0.9,0,0,0,.8.49,1.035,1.035,0,0,0,.42-0.1,0.942,0.942,0,0,0,.44-0.54,0.877,0.877,0,0,0-.06-0.69l-0.27-.51a16.231,16.231,0,0,0,10.36-.75,0.958,0.958,0,0,0,.49-0.5,0.916,0.916,0,0,0-.01-0.69h0Zm-1.19-26.7a14.255,14.255,0,0,1,8.46,10.71l-0.22-.22a0.9,0.9,0,0,0-1.28.02,0.887,0.887,0,0,0,0,1.26l1.97,1.98a0.909,0.909,0,0,0,.64.27h0a0.933,0.933,0,0,0,.65-0.27l1.97-1.98a0.905,0.905,0,0,0-1.28-1.28l-0.57.57a16.007,16.007,0,0,0-9.63-12.72A0.9,0.9,0,1,0,1284.57,1015.89Zm-12,2.31,1.32-2.75,0.02-.05v-0.02a0.737,0.737,0,0,0,.04-0.14c0.01-.04.02-0.09,0.03-0.13v-0.05a0.772,0.772,0,0,0-.02-0.15c-0.01-.04-0.01-0.08-0.02-0.13a0.031,0.031,0,0,0-.01-0.02v-0.02l-0.03-.06a0.673,0.673,0,0,0-.07-0.11c-0.03-.04-0.06-0.09-0.09-0.13l-0.03-.02a0.828,0.828,0,0,0-.15-0.11,0.555,0.555,0,0,1-.08-0.06l-2.66-1.22h-0.01a0.941,0.941,0,0,0-.7,0,0.913,0.913,0,0,0-.05,1.65l0.92,0.42a16.007,16.007,0,0,0-8.03,13.9,0.905,0.905,0,1,0,1.81,0,14.3,14.3,0,0,1,6.29-11.81l-0.11.22a0.919,0.919,0,0,0,.42,1.21,0.934,0.934,0,0,0,.4.09h0A0.908,0.908,0,0,0,1272.57,1018.2Z" transform="translate(-1259 -1009)"/>
</svg>
