<svg xmlns="http://www.w3.org/2000/svg" width="80" height="77" viewBox="0 0 80 77">
  <defs>
    <style>
      .cls-1 {
        fill: #fff;
        fill-rule: evenodd;
      }
    </style>
  </defs>
  <path id="web_design" data-name="web design" class="cls-1" d="M711.25,2258h-72.5a3.74,3.74,0,0,0-3.75,3.73v54.64a1.242,1.242,0,0,0,1.25,1.24h28.475l-2,9.94H660a1.242,1.242,0,0,0-1.25,1.24v3.73h-2.5V2335h37.5v-2.48h-2.5v-3.73a1.242,1.242,0,0,0-1.25-1.24h-2.727l-2-9.94H713.75a1.242,1.242,0,0,0,1.25-1.24v-54.64A3.74,3.74,0,0,0,711.25,2258Zm-25,72.03h2.5v2.49h-27.5v-2.49h25Zm-20.975-2.48,2-9.94h15.452l2,9.94h-19.45Zm47.225-12.42h-75v-11.18h75v11.18ZM695,2269.18H685a1.242,1.242,0,0,0-1.25,1.24v11.18h2.5v-9.94h7.5v4.97h-5v2.48h5v6.21h-5v2.49h5v6.21h-5v2.48h5v4.97h-7.5v-9.94h-2.5v9.94h-5v-6.21c0-5.07,6.2-6.19,6.455-6.23a1.346,1.346,0,0,0,.436-0.16,1.232,1.232,0,0,0,.43-1.7l-11.25-18.63a1.344,1.344,0,0,0-.337-0.34,1.305,1.305,0,0,0-1.805.34l-11.25,18.63a1.21,1.21,0,0,0-.16.43,1.241,1.241,0,0,0,1.022,1.43c0.264,0.04,6.459,1.16,6.459,6.23v6.21h-5v-9.94h-2.5v9.94H660v-22.36h1.25v2.49h2.5v-3.73a1.246,1.246,0,0,0-.1-0.49l-3.75-8.69a1.2,1.2,0,0,0-.656-0.65,1.253,1.253,0,0,0-1.642.65l-3.75,8.69a1.246,1.246,0,0,0-.1.49v23.6h-10v-34.78h62.5v34.78h-10v-31.05A1.242,1.242,0,0,0,695,2269.18Zm-23.75,28.56v-1.24h5v1.24h-5Zm5,2.48v1.25h-5v-1.25h5Zm-5.091-6.2c-0.6-3.95-4-6.09-6.725-7l8.066-13.36v10.42H675v-10.42l8.066,13.36c-2.725.9-6.126,3.05-6.725,7h-5.182Zm-14.266-17.39,1.857-4.31,1.857,4.31h-3.714Zm0.607,2.48v22.36h-1.25v-22.36h1.25Zm55,22.36h-3.75v-36.02a1.242,1.242,0,0,0-1.25-1.24h-65a1.242,1.242,0,0,0-1.25,1.24v36.02H637.5v-39.74a1.25,1.25,0,0,1,1.25-1.25h72.5a1.25,1.25,0,0,1,1.25,1.25v39.74Zm-37.5,3.72a3.725,3.725,0,1,0,3.75,3.73A3.74,3.74,0,0,0,675,2305.19Zm0,4.97a1.24,1.24,0,1,1,1.25-1.24A1.248,1.248,0,0,1,675,2310.16Z" transform="translate(-635 -2258)"/>
</svg>
